<svg width="32" height="28" viewBox="0 0 32 28" fill="none" xmlns="http://www.w3.org/2000/svg">
<path d="M16.6584 2.15441L29.7009 18.6265C29.912 18.8933 29.722 19.2861 29.3819 19.2861H2.40769C2.06131 19.2861 1.87332 18.881 2.097 18.6165L16.0287 2.14416C16.1947 1.94787 16.4988 1.95275 16.6584 2.15441Z" fill="white" stroke="#7436F8" stroke-width="2.21952"/>
<path d="M29.5363 20.0462L16.3083 26.3476C16.078 26.4575 15.8096 26.4528 15.5832 26.3352L2.55786 19.5699C1.99023 19.2752 1.96892 18.4709 2.52014 18.1464L15.5215 10.4933C15.7807 10.3407 16.1029 10.3436 16.3594 10.5007L29.6113 18.6174C30.162 18.9547 30.1193 19.7683 29.5363 20.0462Z" fill="white" stroke="#7436F8" stroke-width="2.21952"/>
</svg>
