<svg width="184" height="34" viewBox="0 0 184 34" fill="none" xmlns="http://www.w3.org/2000/svg">
<path d="M41.136 7.984V25H47.424C50.592 25 52.704 23.032 52.704 20.296C52.704 18.28 51.456 16.72 49.656 16.24C51.12 15.712 52.176 14.368 52.176 12.568C52.176 9.904 50.256 7.984 46.992 7.984H41.136ZM43.992 15.184V10.432H46.536C48.288 10.432 49.296 11.368 49.296 12.808C49.296 14.224 48.288 15.184 46.608 15.184H43.992ZM43.992 22.552V17.608H47.016C48.792 17.608 49.776 18.64 49.776 20.104C49.776 21.616 48.648 22.552 46.92 22.552H43.992ZM58.2302 25V13.312H55.4702V25H58.2302ZM55.0382 9.208C55.0382 10.216 55.8542 11.008 56.8382 11.008C57.8462 11.008 58.6622 10.216 58.6622 9.208C58.6622 8.2 57.8462 7.384 56.8382 7.384C55.8542 7.384 55.0382 8.2 55.0382 9.208ZM65.3531 9.736H62.8331V11.488C62.8331 12.52 62.2811 13.312 61.0331 13.312H60.4331V15.784H62.5931V21.664C62.5931 23.848 63.9371 25.144 66.0971 25.144C67.1051 25.144 67.6331 24.952 67.8011 24.88V22.576C67.6811 22.6 67.2251 22.672 66.8411 22.672C65.8091 22.672 65.3531 22.24 65.3531 21.208V15.784H67.7771V13.312H65.3531V9.736ZM78.3668 25.36C82.7108 25.36 85.3028 22.6 86.0708 19.72L83.4308 18.856C82.8548 20.776 81.2228 22.6 78.3668 22.6C75.4628 22.6 72.7268 20.488 72.7268 16.504C72.7268 12.376 75.5348 10.336 78.3428 10.336C81.1988 10.336 82.7828 11.992 83.2868 14.056L85.9988 13.144C85.2308 10.168 82.6628 7.624 78.3428 7.624C73.9268 7.624 69.7748 10.96 69.7748 16.504C69.7748 22.048 73.7828 25.36 78.3668 25.36ZM91.2542 25V7.624H88.4702V25H91.2542ZM100.009 22.864C98.3046 22.864 96.7446 21.568 96.7446 19.144C96.7446 16.72 98.3046 15.472 100.009 15.472C101.737 15.472 103.273 16.72 103.273 19.144C103.273 21.592 101.737 22.864 100.009 22.864ZM100.009 12.952C96.5286 12.952 93.9606 15.568 93.9606 19.144C93.9606 22.744 96.5286 25.36 100.009 25.36C103.513 25.36 106.081 22.744 106.081 19.144C106.081 15.568 103.513 12.952 100.009 12.952ZM116.399 23.704C116.399 24.184 116.447 24.736 116.495 25H119.159C119.111 24.568 119.039 23.824 119.039 22.864V13.312H116.255V20.224C116.255 21.76 115.415 22.84 113.807 22.84C112.127 22.84 111.455 21.616 111.455 20.176V13.312H108.671V20.68C108.671 23.272 110.303 25.336 113.087 25.336C114.455 25.336 115.823 24.76 116.399 23.704ZM126.173 9.736H123.653V11.488C123.653 12.52 123.101 13.312 121.853 13.312H121.253V15.784H123.413V21.664C123.413 23.848 124.757 25.144 126.917 25.144C127.925 25.144 128.453 24.952 128.621 24.88V22.576C128.501 22.6 128.045 22.672 127.661 22.672C126.629 22.672 126.173 22.24 126.173 21.208V15.784H128.597V13.312H126.173V9.736ZM145.451 25V7.984H142.547V15.016H134.555V7.984H131.675V25H134.555V17.728H142.547V25H145.451ZM156.922 23.704C156.922 24.184 156.97 24.736 157.018 25H159.682C159.634 24.568 159.562 23.824 159.562 22.864V13.312H156.778V20.224C156.778 21.76 155.938 22.84 154.33 22.84C152.65 22.84 151.978 21.616 151.978 20.176V13.312H149.194V20.68C149.194 23.272 150.826 25.336 153.61 25.336C154.978 25.336 156.346 24.76 156.922 23.704ZM165.809 18.256C165.809 16.72 166.649 15.496 168.233 15.496C169.985 15.496 170.633 16.648 170.633 18.088V25H173.417V17.608C173.417 15.04 172.049 12.976 169.193 12.976C167.897 12.976 166.505 13.528 165.737 14.872V13.312H163.025V25H165.809V18.256ZM180.314 9.736H177.794V11.488C177.794 12.52 177.242 13.312 175.994 13.312H175.394V15.784H177.554V21.664C177.554 23.848 178.898 25.144 181.058 25.144C182.066 25.144 182.594 24.952 182.762 24.88V22.576C182.642 22.6 182.186 22.672 181.802 22.672C180.77 22.672 180.314 22.24 180.314 21.208V15.784H182.738V13.312H180.314V9.736Z" fill="black"/>
<path d="M16.6584 4.15441L29.7009 20.6265C29.912 20.8933 29.722 21.2861 29.3819 21.2861H2.40769C2.06131 21.2861 1.87332 20.881 2.097 20.6165L16.0287 4.14416C16.1947 3.94786 16.4988 3.95275 16.6584 4.15441Z" fill="white" stroke="#7436F8" stroke-width="2.21952"/>
<path d="M29.5363 22.0462L16.3083 28.3476C16.078 28.4575 15.8096 28.4528 15.5832 28.3352L2.55786 21.5699C1.99023 21.2752 1.96892 20.4709 2.52014 20.1464L15.5215 12.4933C15.7807 12.3407 16.1029 12.3436 16.3594 12.5007L29.6113 20.6174C30.162 20.9547 30.1193 21.7683 29.5363 22.0462Z" fill="white" stroke="#7436F8" stroke-width="2.21952"/>
</svg>
